<svg width="800" height="600" xmlns="http://www.w3.org/2000/svg">
  <defs>
    <linearGradient id="vintageGradient" x1="0%" y1="0%" x2="100%" y2="100%">
      <stop offset="0%" style="stop-color:#8B4513;stop-opacity:1" />
      <stop offset="50%" style="stop-color:#A0522D;stop-opacity:1" />
      <stop offset="100%" style="stop-color:#CD853F;stop-opacity:1" />
    </linearGradient>
  </defs>
  
  <!-- Background -->
  <rect x="0" y="0" width="800" height="600" fill="url(#vintageGradient)" rx="15"/>
  
  <!-- Inner cream background -->
  <rect x="20" y="20" width="760" height="560" fill="#FDF5E6" rx="12"/>
  
  <!-- 8 photo areas in 2x4 grid -->
  <!-- Top row -->
  <rect x="40" y="50" width="170" height="120" fill="transparent" stroke="#8B4513" stroke-width="2"/>
  <rect x="220" y="50" width="170" height="120" fill="transparent" stroke="#8B4513" stroke-width="2"/>
  <rect x="400" y="50" width="170" height="120" fill="transparent" stroke="#8B4513" stroke-width="2"/>
  <rect x="580" y="50" width="170" height="120" fill="transparent" stroke="#8B4513" stroke-width="2"/>
  
  <!-- Bottom row -->
  <rect x="40" y="190" width="170" height="120" fill="transparent" stroke="#8B4513" stroke-width="2"/>
  <rect x="220" y="190" width="170" height="120" fill="transparent" stroke="#8B4513" stroke-width="2"/>
  <rect x="400" y="190" width="170" height="120" fill="transparent" stroke="#8B4513" stroke-width="2"/>
  <rect x="580" y="190" width="170" height="120" fill="transparent" stroke="#8B4513" stroke-width="2"/>
  
  <!-- Vertical dividers -->
  <rect x="215" y="50" width="5" height="260" fill="url(#vintageGradient)"/>
  <rect x="395" y="50" width="5" height="260" fill="url(#vintageGradient)"/>
  <rect x="575" y="50" width="5" height="260" fill="url(#vintageGradient)"/>
  
  <!-- Horizontal divider -->
  <rect x="40" y="175" width="710" height="10" fill="url(#vintageGradient)"/>
  
  <!-- Title area -->
  <rect x="40" y="330" width="710" height="230" fill="rgba(139, 69, 19, 0.1)" rx="10"/>
  
  <!-- Decorative elements -->
  <text x="400" y="370" text-anchor="middle" fill="#8B4513" font-family="serif" font-size="32" font-weight="bold">Photo Collection</text>
  <text x="400" y="400" text-anchor="middle" fill="#A0522D" font-family="serif" font-size="18">Eight Wonderful Moments</text>
  
  <!-- Vintage ornamental border -->
  <rect x="35" y="45" width="730" height="270" fill="none" stroke="url(#vintageGradient)" stroke-width="3" stroke-dasharray="10,5"/>
  
  <!-- Corner ornaments -->
  <circle cx="60" cy="70" r="8" fill="#CD853F"/>
  <circle cx="740" cy="70" r="8" fill="#CD853F"/>
  <circle cx="60" cy="290" r="8" fill="#CD853F"/>
  <circle cx="740" cy="290" r="8" fill="#CD853F"/>
  
  <!-- Photo slot indicators -->
  <text x="125" y="115" text-anchor="middle" fill="#ccc" font-family="serif" font-size="14" opacity="0.6">1</text>
  <text x="305" y="115" text-anchor="middle" fill="#ccc" font-family="serif" font-size="14" opacity="0.6">2</text>
  <text x="485" y="115" text-anchor="middle" fill="#ccc" font-family="serif" font-size="14" opacity="0.6">3</text>
  <text x="665" y="115" text-anchor="middle" fill="#ccc" font-family="serif" font-size="14" opacity="0.6">4</text>
  <text x="125" y="255" text-anchor="middle" fill="#ccc" font-family="serif" font-size="14" opacity="0.6">5</text>
  <text x="305" y="255" text-anchor="middle" fill="#ccc" font-family="serif" font-size="14" opacity="0.6">6</text>
  <text x="485" y="255" text-anchor="middle" fill="#ccc" font-family="serif" font-size="14" opacity="0.6">7</text>
  <text x="665" y="255" text-anchor="middle" fill="#ccc" font-family="serif" font-size="14" opacity="0.6">8</text>
  
  <!-- Date placeholder -->
  <text x="400" y="530" text-anchor="middle" fill="#8B4513" font-family="serif" font-size="16" opacity="0.7">Date: ___________</text>
</svg>